<svg xmlns="http://www.w3.org/2000/svg" width="40" height="40" viewBox="0 0 40 40">
  <g id="prefix__forum-black-48dp" transform="translate(-1 -1)">
    <path id="패스_49" data-name="패스 49" d="M0,0H40V40H0Z" transform="translate(1 1)" fill="none"/>
    <path id="패스_50" data-name="패스 50" d="M34.4,9.2H32.6V23.6a1.8,1.8,0,0,1-1.8,1.8H9.2v1.8a3.611,3.611,0,0,0,3.6,3.6h18L38,38V12.8a3.611,3.611,0,0,0-3.6-3.6Zm-5.4,9V5.6A3.611,3.611,0,0,0,25.4,2H5.6A3.611,3.611,0,0,0,2,5.6V29l7.2-7.2H25.4A3.611,3.611,0,0,0,29,18.2Z" transform="translate(1 1)" fill="#fff"/>
  </g>
</svg>
