<svg xmlns="http://www.w3.org/2000/svg" id="prefix__clear-black-48dp" width="40" height="40" viewBox="0 0 40 40">
    <path id="prefix__패스_51" d="M0 0h40v40H0z" data-name="패스 51" style="fill:none"/>
    <path id="prefix__패스_52" d="M34.742 6.1a2.266 2.266 0 0 0-3.208 0L20.408 17.2 9.281 6.073a2.269 2.269 0 1 0-3.208 3.208L17.2 20.408 6.073 31.534a2.269 2.269 0 0 0 3.208 3.208l11.127-11.126 11.126 11.126a2.269 2.269 0 0 0 3.208-3.208L23.616 20.408 34.742 9.281a2.28 2.28 0 0 0 0-3.181z" data-name="패스 52" transform="translate(-.408 -.407)" style="fill:#fff"/>
</svg>
